<?xml version="1.0" encoding="iso-8859-1"?>
<!-- Generator: Adobe Illustrator 19.0.0, SVG Export Plug-In . SVG Version: 6.00 Build 0)  -->
<svg version="1.1" id="Capa_1" xmlns="http://www.w3.org/2000/svg" xmlns:xlink="http://www.w3.org/1999/xlink" x="0px" y="0px"
	 viewBox="0 0 512 512" style="enable-background:new 0 0 512 512;" xml:space="preserve">
<path style="fill:#F0E4D6;" d="M495.484,346.839c-40.027,0.017-72.844,31.752-74.19,71.763
	c-27.161-13.064-59.805-2.989-74.859,23.123c-14.617-21.38-43.223-27.904-65.66-14.964v-39.317h-49.548v39.317
	c-22.429-12.94-51.043-6.425-65.66,14.947c-15.054-26.112-47.699-36.187-74.859-23.123c-1.354-40.002-34.164-71.73-74.19-71.746
	H8.258V512h495.484V346.839H495.484z"/>
<path style="fill:#E8594A;" d="M297.29,322.064H214.71l-30.844-95.967C157.968,145.524,187.128,57.451,256,8.258l0,0
	c68.872,49.193,98.032,137.266,72.134,217.839L297.29,322.064z"/>
<path style="fill:#D65245;" d="M204.874,291.51l9.835,30.555h82.581l30.844-95.967c10.57-32.941,12.139-68.104,4.55-101.855
	C297.753,227.328,242.333,272.235,204.874,291.51z"/>
<circle style="fill:#87CED9;" cx="256" cy="165.161" r="41.29"/>
<polygon style="fill:#4398D1;" points="231.226,322.064 222.968,363.355 289.032,363.355 280.774,322.064 "/>
<g>
	<path style="fill:#FDB62F;" d="M173.419,379.871l6.235-43.627c1.164-8.134,8.134-14.179,16.351-14.179h18.705l-29.027-90.31
		c-43.776,31.306-53.876,92.176-22.569,135.944C166.21,372.034,169.654,376.105,173.419,379.871z"/>
	<path style="fill:#FDB62F;" d="M338.581,379.871l-6.235-43.627c-1.164-8.134-8.134-14.179-16.351-14.179H297.29l29.027-90.31
		c43.776,31.306,53.876,92.176,22.569,135.944C345.79,372.034,342.346,376.105,338.581,379.871z"/>
</g>
<g>
	<path style="fill:#E0D2C1;" d="M222.968,414.365c-20.051-6.119-41.852-0.793-56.815,13.89
		c-12.552-14.922-31.042-23.56-50.539-23.61c-6.012,0-11.999,0.834-17.78,2.477c-6.664-39.672-41.084-68.682-81.317-68.542H8.258
		v16.516h8.258c33.759-0.107,62.101,25.394,65.544,58.979c-8.027,4.674-14.98,10.983-20.406,18.523
		c-14.881-12.717-33.817-19.704-53.397-19.695v16.516c36.468,0.041,66.023,29.597,66.065,66.065h16.516
		c0.008-18.292-6.094-36.063-17.342-50.49c4.905-8.126,12.024-14.675,20.53-18.878c0.083,0,0.173,0,0.256-0.083
		c6.656-3.212,13.948-4.872,21.331-4.872c16.004,0.074,30.993,7.862,40.258,20.909c-4.691,8.82-7.168,18.647-7.226,28.639h16.516
		c-0.008-8.44,2.378-16.714,6.879-23.858h-0.05c0.116-0.157,0.273-0.273,0.388-0.438c11.157-16.401,32.429-22.503,50.589-14.518
		v21.636h16.516v-66.065h-16.516V414.365z"/>
	<path style="fill:#E0D2C1;" d="M495.484,355.097h8.258v-16.516h-8.258c-40.233-0.14-74.653,28.87-81.317,68.542
		c-5.781-1.643-11.768-2.477-17.78-2.477c-19.497,0.05-37.987,8.688-50.539,23.61c-14.964-14.683-36.765-20.009-56.815-13.89
		v-26.921h-16.516v66.065h16.516v-21.611c18.16-7.986,39.424-1.891,50.589,14.509c0.116,0.165,0.273,0.281,0.388,0.438h-0.05
		c4.501,7.143,6.887,15.418,6.879,23.866h16.516c-0.05-9.992-2.535-19.819-7.226-28.639c9.266-13.048,24.254-20.835,40.258-20.909
		c7.391,0,14.683,1.668,21.331,4.889c0.083,0.041,0.173,0.05,0.256,0.083c8.514,4.195,15.657,10.735,20.571,18.861
		c-11.264,14.419-17.383,32.19-17.383,50.49h16.516c0.041-36.468,29.597-66.023,66.065-66.065v-16.516
		c-19.58,0-38.516,6.978-53.397,19.695c-5.426-7.54-12.379-13.849-20.406-18.523C433.383,380.499,461.725,354.989,495.484,355.097z"
		/>
</g>
<g>
	<rect x="214.71" y="239.484" style="fill:#C44639;" width="16.516" height="16.516"/>
	<rect x="247.742" y="239.484" style="fill:#C44639;" width="16.516" height="16.516"/>
	<rect x="280.774" y="239.484" style="fill:#C44639;" width="16.516" height="16.516"/>
</g>
<rect x="99.097" y="437.677" style="fill:#FFF7ED;" width="16.516" height="16.516"/>
<rect x="8.258" y="305.548" style="fill:#F0E4D6;" width="16.516" height="16.516"/>
<rect x="470.71" y="379.871" style="fill:#FFF7ED;" width="16.516" height="16.516"/>
<rect x="404.645" y="346.839" style="fill:#F0E4D6;" width="16.516" height="16.516"/>
<rect x="313.806" y="478.968" style="fill:#FFF7ED;" width="16.516" height="16.516"/>
<rect x="487.226" y="289.032" style="fill:#F0E4D6;" width="16.516" height="16.516"/>
<path style="fill:#C44639;" d="M314.095,74.323H197.904c-2.907,5.401-5.632,10.884-8.01,16.516h132.212
	C319.727,85.207,317.002,79.723,314.095,74.323z"/>
<path style="fill:#7DC6D1;" d="M221.679,188.094c12.519,19.018,38.086,24.287,57.096,11.768
	c19.018-12.519,24.287-38.086,11.768-57.096c-0.471-0.71-0.958-1.412-1.478-2.098L221.679,188.094z"/>
<path d="M256,214.71c27.367,0,49.548-22.181,49.548-49.548S283.367,115.613,256,115.613s-49.548,22.181-49.548,49.548
	C206.476,192.512,228.649,214.685,256,214.71z M256,132.129c18.242,0,33.032,14.79,33.032,33.032s-14.79,33.032-33.032,33.032
	s-33.032-14.79-33.032-33.032S237.758,132.129,256,132.129z"/>
<path d="M173.419,388.129c0.884,0,1.767-0.14,2.61-0.421c2.965-0.991,5.12-3.567,5.566-6.664l6.235-43.636
	c0.586-4.063,4.063-7.085,8.167-7.085h25.154l-6.276,31.381c-0.908,4.468,1.974,8.828,6.441,9.745
	c0.545,0.107,1.098,0.165,1.652,0.165h66.064c4.558,0,8.258-3.7,8.258-8.258c0-0.553-0.058-1.107-0.165-1.652l-6.276-31.381h25.154
	c4.104,0.008,7.589,3.031,8.167,7.094l6.235,43.627c0.446,3.097,2.601,5.673,5.566,6.664c0.842,0.281,1.726,0.421,2.61,0.421
	c2.188,0,4.294-0.867,5.838-2.42c41.208-41.142,41.257-107.908,0.107-149.116c-2.725-2.733-5.599-5.31-8.605-7.721l0.083-0.239
	c27.219-84.001-3.229-175.946-75.206-227.097c-2.874-2.048-6.722-2.048-9.596,0c-71.977,51.15-102.425,143.096-75.206,227.097
	l0.083,0.239c-45.411,36.451-52.678,102.813-16.219,148.232c2.411,3.006,4.996,5.88,7.721,8.605
	C169.133,387.262,171.231,388.129,173.419,388.129z M278.957,355.097h-45.915l4.955-24.774h36.005L278.957,355.097z M358.54,303.665
	c1.676,19.91-3.411,39.804-14.443,56.46l-3.576-25.047c-1.792-12.181-12.214-21.223-24.518-21.273h-7.383l21.867-68.03
	C346.723,260.905,356.732,281.55,358.54,303.665z M256,18.523c19.844,15.145,36.451,34.122,48.822,55.8h-97.643
	C219.549,52.645,236.156,33.668,256,18.523z M198.871,90.839h114.259c18.68,41.844,21.223,89.121,7.143,132.732l-1.817,5.657l0,0
	l-27.186,84.579h-70.54l-27.186-84.579l0,0l-1.817-5.657C177.647,179.96,180.191,132.682,198.871,90.839z M153.451,303.665
	c1.817-22.123,11.834-42.768,28.077-57.889l21.851,68.03h-7.383c-12.305,0.05-22.726,9.092-24.518,21.273l-3.576,25.047
	C156.87,343.469,151.783,323.576,153.451,303.665L153.451,303.665z"/>
<path d="M74.323,495.484h16.516c0.008-18.292-6.094-36.063-17.342-50.49c4.905-8.126,12.024-14.675,20.53-18.878
	c0.083,0,0.173,0,0.256-0.083c6.656-3.212,13.948-4.872,21.331-4.872c16.004,0.074,30.993,7.862,40.258,20.909
	c-4.691,8.82-7.168,18.647-7.226,28.639h16.516c-0.008-8.44,2.378-16.714,6.879-23.858h-0.05c0.116-0.157,0.273-0.273,0.388-0.438
	c11.157-16.401,32.429-22.503,50.589-14.518v21.636h16.516v-66.065h-16.516v26.921c-20.051-6.119-41.852-0.793-56.815,13.89
	c-12.544-14.931-31.034-23.577-50.539-23.635c-6.012,0-11.999,0.834-17.78,2.477c-6.664-39.672-41.084-68.682-81.317-68.542H8.258
	v16.516h8.258c33.759-0.107,62.101,25.394,65.544,58.979c-8.027,4.674-14.98,10.983-20.406,18.523
	c-14.881-12.717-33.817-19.704-53.397-19.695v16.516C44.726,429.461,74.281,459.016,74.323,495.484z"/>
<path d="M414.167,407.123c-5.781-1.643-11.768-2.477-17.78-2.477c-19.497,0.05-37.987,8.688-50.539,23.61
	c-14.964-14.683-36.765-20.009-56.815-13.89v-26.921h-16.516v66.065h16.516v-21.611c18.16-7.986,39.424-1.891,50.589,14.509
	c0.116,0.165,0.273,0.281,0.388,0.438h-0.05c4.501,7.143,6.887,15.418,6.879,23.866h16.516c-0.05-9.992-2.535-19.819-7.226-28.639
	c9.266-13.048,24.254-20.835,40.258-20.909c7.391,0,14.683,1.668,21.331,4.889c0.083,0.041,0.173,0.05,0.256,0.083
	c8.514,4.195,15.657,10.735,20.571,18.861c-11.264,14.419-17.383,32.19-17.383,50.49h16.516
	c0.041-36.468,29.597-66.023,66.065-66.065v-16.516c-19.58,0-38.516,6.978-53.397,19.695c-5.426-7.54-12.379-13.849-20.406-18.523
	c3.444-33.577,31.785-59.086,65.544-58.979h8.258v-16.516h-8.258C455.251,338.44,420.831,367.451,414.167,407.123z"/>
<rect x="214.71" y="239.484" width="16.516" height="16.516"/>
<rect x="247.742" y="239.484" width="16.516" height="16.516"/>
<rect x="280.774" y="239.484" width="16.516" height="16.516"/>
<rect x="99.097" y="437.677" width="16.516" height="16.516"/>
<rect x="8.258" y="305.548" width="16.516" height="16.516"/>
<rect x="470.71" y="379.871" width="16.516" height="16.516"/>
<rect x="404.645" y="346.839" width="16.516" height="16.516"/>
<rect x="313.806" y="478.968" width="16.516" height="16.516"/>
<rect x="487.226" y="289.032" width="16.516" height="16.516"/>
<g>
</g>
<g>
</g>
<g>
</g>
<g>
</g>
<g>
</g>
<g>
</g>
<g>
</g>
<g>
</g>
<g>
</g>
<g>
</g>
<g>
</g>
<g>
</g>
<g>
</g>
<g>
</g>
<g>
</g>
</svg>
