<svg id="filled_outline" height="512" viewBox="0 0 512 512" width="512" xmlns="http://www.w3.org/2000/svg" data-name="filled outline"><path d="m88 72-24 64v72h48v-72z" fill="#e54a85"/><path d="m136 72-24 64v176h48v-176z" fill="#ffc866"/><path d="m184 72-24 64v176h48v-176z" fill="#a7d5c3"/><path d="m232 72-24 64v176h48v-176z" fill="#dceaef"/><path d="m280 72-24 64v176h48v-176z" fill="#ffe7e1"/><path d="m328 72-24 64v176h48v-176z" fill="#74a2b7"/><path d="m376 72-24 64v176h48v-176z" fill="#d1d8db"/><path d="m424 24-24 64v120h48v-120z" fill="#6f8b7b"/><g fill="#f9d59b"><path d="m304 136h-48l24-64z"/><path d="m352 136h-48l24-64z"/><path d="m400 136h-48l24-64z"/><path d="m448 88h-48l24-64z"/><path d="m112 136h-48l24-64z"/><path d="m160 136h-48l24-64z"/><path d="m208 136h-48l24-64z"/><path d="m256 136h-48l24-64z"/></g><path d="m64 136h16v64h-16z" fill="#d32668"/><path d="m112 136h16v168h-16z" fill="#e2a23b"/><path d="m160 136h16v168h-16z" fill="#6f8b7b"/><path d="m208 136h16v168h-16z" fill="#74a2b7"/><path d="m256 136h16v168h-16z" fill="#f4d2cb"/><path d="m352 136h16v168h-16z" fill="#b9bec1"/><path d="m400 88h16v120h-16z" fill="#516b5b"/><path d="m304 136h16v168h-16z" fill="#2e4859"/><path d="m48 200v272.252a15.748 15.748 0 0 0 15.748 15.748h384.5a15.748 15.748 0 0 0 15.752-15.748v-272.252zm352 72a24 24 0 0 1 -24 24h-240a24 24 0 0 1 -24-24 24 24 0 0 1 24-24h240a24 24 0 0 1 24 24z" fill="#ba763e"/><path d="m344 448c-136.967 0-248-111.033-248-248h-48v272.252a15.747 15.747 0 0 0 15.748 15.748h384.5a15.747 15.747 0 0 0 15.752-15.748v-24.252z" fill="#a5662d"/><path d="m472 472.252v-272.252a8 8 0 0 0 -8-8h-8v-104a8 8 0 0 0 -.051-.881c-.008-.07-.022-.139-.032-.209-.032-.234-.071-.465-.123-.691-.019-.082-.041-.163-.063-.244q-.086-.331-.2-.653c-.015-.043-.024-.088-.04-.131l-24-64a8 8 0 0 0 -14.982 0l-24 64c-.016.043-.025.088-.04.131q-.114.321-.2.653c-.022.081-.044.162-.063.244-.052.227-.091.458-.123.693-.01.069-.024.137-.032.206a8.034 8.034 0 0 0 -.051.882v3.882l-8.509-22.691a8 8 0 0 0 -14.982 0l-16.509 44.025-16.509-44.025a8 8 0 0 0 -14.982 0l-16.509 44.025-16.509-44.025a8 8 0 0 0 -14.982 0l-16.509 44.025-16.509-44.025a8 8 0 0 0 -14.982 0l-16.509 44.025-16.509-44.025a8 8 0 0 0 -14.982 0l-16.509 44.025-16.509-44.025a8 8 0 0 0 -14.982 0l-16.509 44.025-16.509-44.025a8 8 0 0 0 -14.982 0l-24 64h.007a7.974 7.974 0 0 0 -.516 2.809v56h-8a8 8 0 0 0 -8 8v272.252a23.774 23.774 0 0 0 23.748 23.748h384.5a23.774 23.774 0 0 0 23.752-23.748zm-48-425.468 12.456 33.216h-24.912zm-64 145.216v-48h32v48zm-240-48h32v48h-32zm48 0h32v48h-32zm48 0h32v48h-32zm48 0h32v48h-32zm48 0h32v48h-32zm64-49.216 12.456 33.216h-24.912zm-48 0 12.456 33.216h-24.912zm-48 0 12.456 33.216h-24.912zm-48 0 12.456 33.216h-24.912zm-48 0 12.456 33.216h-24.912zm-48 0 12.456 33.216h-24.912zm-48 0 12.456 33.216h-24.912zm-16 49.216h32v48h-32zm-16 328.252v-264.252h360v-16h-8v-96h32v96h-8v16h24v264.252a7.757 7.757 0 0 1 -7.748 7.748h-384.504a7.757 7.757 0 0 1 -7.748-7.748z"/><path d="m376 240h-240a32 32 0 0 0 0 64h40v-16h-40a16 16 0 0 1 0-32h240a16 16 0 0 1 0 32h-184v16h184a32 32 0 0 0 0-64z"/></svg>